<svg height="512" viewBox="0 0 32 32" width="512" xmlns="http://www.w3.org/2000/svg" xmlns:xlink="http://www.w3.org/1999/xlink"><linearGradient id="SVGID_1_" gradientUnits="userSpaceOnUse" x1="16" x2="16" y1="1" y2="31"><stop offset="0" stop-color="#00bcd4"/><stop offset="1" stop-color="#1976d2"/></linearGradient><g id="_x30_1_cart"><path d="m9.4384766 20.9755859 4.5517578-.2675781c.003418 0 .0063477.0019531.0097656.0019531.0063477 0 .0112305-.003418.0175781-.003418l10.0449219-.5908202c1.4985352-.0883789 3.0439453-1.2734375 3.5185547-2.6967773l3.3676758-10.1025391c.1015625-.3051758.050293-.6401367-.1376953-.9008789-.1875-.2612305-.4897461-.4155274-.8110352-.4155274h-22.8588867c-.428711-1.1352539-1.272461-2.3481445-2.1411133-3l-2.3999023-1.7998047c-.4428711-.3325195-1.0688477-.2416992-1.3999024.199707-.331543.4418946-.2421875 1.0688477.199707 1.3999024l2.3999023 1.7998047c.6772461.5083008 1.4458008 1.7275391 1.6118164 2.5576172l2.5029297 12.5141602-.9145507.9145507c-.5795898.5791016-1 1.5947266-1 2.4140625v1c0 .5522461.4477539 1 1 1h2 16 2c.5522461 0 1-.4477539 1-1s-.4477539-1-1-1h-19c0-.284668.2128906-.7988281.4140625-1zm17.1738281-6.9755859h-4.6123047v-2h5.2792969zm-6.6123047 0h-5v-2h5zm0 2v2.3515625l-5 .2939453v-2.6455078zm-11.5800781-4h4.5800781v2h-4.1801758zm6.5800781-2v-2h5v2zm-2 0h-4.9804687l-.3999024-2h5.3803711zm0 6v2.7631836l-3.1899414.1875-.590332-2.9506836zm10.9448242 2.1196289-1.9448242.1142578v-2.2338867h3.9458008l-.262207.7866211c-.21875.6567383-1.0478516 1.2919922-1.7387696 1.3330078zm4.0014649-8.1196289h-5.9462891v-2h6.612793zm-5.9462891 18c0 1.6542969 1.3457031 3 3 3s3-1.3457031 3-3-1.3457031-3-3-3-3 1.3457031-3 3zm3-1c.5512695 0 1 .4487305 1 1s-.4487305 1-1 1-1-.4487305-1-1 .4487305-1 1-1zm-19 1c0 1.6542969 1.3457031 3 3 3s3-1.3457031 3-3-1.3457031-3-3-3-3 1.3457031-3 3zm3-1c.5512695 0 1 .4487305 1 1s-.4487305 1-1 1-1-.4487305-1-1 .4487305-1 1-1z" fill="url(#SVGID_1_)"/></g></svg>