<svg id="Layer_3" height="512" viewBox="0 0 32 32" width="512" xmlns="http://www.w3.org/2000/svg" data-name="Layer 3"><path d="m29.731 13.8a2.339 2.339 0 0 0 -1.3-3.989l-6.965-1.011a.34.34 0 0 1 -.254-.185l-3.112-6.315a2.337 2.337 0 0 0 -4.193 0l-3.12 6.317a.337.337 0 0 1 -.254.185l-6.968 1.012a2.338 2.338 0 0 0 -1.295 3.986l5.041 4.914a.337.337 0 0 1 .1.3l-1.19 6.939a2.338 2.338 0 0 0 3.393 2.465l6.232-3.277a.333.333 0 0 1 .314 0l6.233 3.276a2.338 2.338 0 0 0 3.392-2.465l-1.19-6.939a.339.339 0 0 1 .1-.3z" fill="#efce4a"/></svg>